<svg xmlns="http://www.w3.org/2000/svg" viewBox="0 0 65.246 10.795"><path class="st0" d="M9.895 6.959H7.673l-.476 1.164h-.635l2.222-5.45 2.223 5.423h-.635zm-1.984-.583h1.746l-.873-2.143zM11.906 2.672l3.096 3.81v-3.81h.582v5.424l-.026-.026-3.096-3.757v3.81h-.582v-5.45zM17.04 2.672h2.989v.582h-2.434v1.852h1.852v.583h-1.852V7.54h2.434v.582h-2.99zM24.977 3.89c-.212.211-.37.45-.477.714a2.123 2.123 0 000 1.614c.106.264.265.502.477.714a2.156 2.156 0 001.535.635c.264 0 .555-.053.793-.159.265-.106.503-.264.714-.476l.397.397a2.581 2.581 0 01-.9.608 2.767 2.767 0 01-1.031.212c-.344 0-.688-.08-1.032-.212a2.581 2.581 0 01-.9-.608 2.581 2.581 0 01-.608-.9 2.767 2.767 0 01-.212-1.032c0-.343.08-.687.212-1.031.159-.318.344-.635.608-.9.265-.265.556-.476.9-.609.344-.105.688-.185 1.032-.185.344 0 .688.08 1.032.212.317.132.608.317.873.582l-.397.397a2.114 2.114 0 00-.714-.476 2.123 2.123 0 00-1.614 0 2.557 2.557 0 00-.688.502zM32.173 5.689h-2.09v2.434h-.582v-5.45h.582v2.433h2.09V2.672h.582v5.424h-.582zM35.825 8.096a1.57 1.57 0 01-.609-.132 1.627 1.627 0 01-.503-.318 1.225 1.225 0 01-.344-.476 2.288 2.288 0 01-.158-.608v-3.89h.582v3.89c0 .132.053.264.106.37.052.106.132.212.238.318.105.079.211.158.317.211.132.053.238.08.397.08.132 0 .265-.027.397-.08.132-.053.238-.106.317-.211.106-.08.16-.186.239-.318.052-.106.079-.238.105-.37v-3.89h.582v3.89c0 .211-.052.423-.158.608a1.57 1.57 0 01-.344.476 1.627 1.627 0 01-.503.318c-.238.106-.45.132-.661.132zM42.042 4.366c0 .185-.026.37-.08.529a2.003 2.003 0 01-.237.476 2.452 2.452 0 01-.37.37 1.343 1.343 0 01-.477.239l1.138 2.143h-.662l-1.11-2.064h-.768v2.064h-.582v-5.45h1.455c.238 0 .45.052.661.132.212.079.37.211.53.37a1.9 1.9 0 01.37.53c.08.21.132.423.132.66zm-2.566 1.11h.873c.159 0 .291-.026.423-.079a.806.806 0 00.344-.238 1.007 1.007 0 00.318-.767c0-.159-.027-.291-.08-.423a.806.806 0 00-.238-.344 1.007 1.007 0 00-.767-.318h-.873zM44.08 3.89c-.212.211-.37.45-.477.714a2.123 2.123 0 000 1.614c.106.264.265.502.477.714a2.156 2.156 0 001.535.635c.264 0 .555-.053.793-.159.264-.106.503-.264.714-.476l.397.397a2.581 2.581 0 01-.9.608 2.767 2.767 0 01-1.031.212c-.344 0-.688-.08-1.032-.212a2.581 2.581 0 01-.9-.608 2.581 2.581 0 01-.608-.9 2.767 2.767 0 01-.212-1.032c0-.343.08-.687.212-1.031.132-.344.344-.635.608-.9.265-.265.556-.476.9-.609a2.767 2.767 0 011.032-.211c.344 0 .688.08 1.032.211.344.133.635.344.9.609l-.398.397a2.114 2.114 0 00-.714-.476 2.123 2.123 0 00-1.614 0 2.685 2.685 0 00-.714.502zM51.276 5.689h-2.09v2.434h-.582v-5.45h.582v2.433h2.09V2.672h.582v5.424h-.582zM53.314 2.672h.582v5.424h-.582zM55.324 2.672h.582v4.842h2.329v.582H55.35V2.672zM59.69 2.672h.582v4.842H62.6v.582h-2.884V2.672zM5.265 2.672v3.943a.934.934 0 01-.08.37c-.052.106-.105.212-.21.291a.685.685 0 01-.292.185.845.845 0 01-.37.08h-.106c-.132 0-.265-.027-.397-.08-.132-.053-.238-.106-.317-.211-.08-.08-.16-.186-.239-.291h-.608c.026.079.053.158.08.211.105.185.21.344.37.476.158.133.317.239.502.318.186.08.397.132.609.132h.106s.397-.026.582-.106c.185-.079.344-.185.476-.317s.238-.291.318-.476c.079-.186.132-.37.132-.582V2.672z" fill="#000000"/></svg>