<svg xmlns="http://www.w3.org/2000/svg" id="Layer_1" viewBox="0 0 245 50" class="svg-inline inlined-svg" role="img">
<path d="M160.7,13.8c-1.6,0.2-3.3,0.9-3.9,2.6c-0.3,1.4,0,2.9,0.9,3.9c4.7,4.1,14.8,5.8,12.8,14.5c-0.3,2.4-1.8,4.7-4,5.9  c-1.4,0.7-2.8,1.1-4.4,1.2v-4c1.5-0.2,3-0.9,3.9-2.2c0.5-1,0.6-2.3,0.3-3.4c-0.5-1.6-2.2-2.7-3.5-3.5c-3.9-2.3-10.1-4.3-10.2-9.9  c-0.3-3.2,0.7-6.4,3.8-7.9c1.3-0.8,2.9-1.1,4.5-1.2V13.8z"></path>
<path d="M169.5,12.2c-0.5,1.2-1.5,2.3-2.2,3.4c-1.5-1.1-3.3-1.7-5.2-2v-4C164.8,9.9,167.3,10.8,169.5,12.2z"></path>
<polygon points="235.1,36.5 230.9,30.8 230.9,9.9 235.1,9.9 "></polygon>
<polygon points="221.1,19.5 235,38.8 235,41.2 231.6,41.2 210.6,11.9 210.5,10 214.1,10 "></polygon>
<polygon points="185.3,41.3 181.2,41.3 181.2,10.1 185.2,10.1 "></polygon>
<path d="M114.4,41.5h-4.5l-4-10.1h-8.2l1.5-4c1.9-0.1,5.7,0,5.7,0l-5.7-15.1l0.9-2h2.5L114.4,41.5z"></path>
<path d="M141.5,15.3c1.5,3,1.1,7.4-1.2,9.9c-1.7,2.1-4.1,2.9-6.5,3.3l11.1,12.9l-5.4-0.1l-11-13.1v-3.2c3.3-0.1,7.1,0.4,8.9-2.9  c0.7-1.7,1.1-4.3-0.4-5.8c-2-2.7-5.6-2.3-8.5-2.2l-0.1-3.9C133.7,9.8,139.2,10.2,141.5,15.3z"></path>
<polygon points="92.5,41.4 88,41.4 98.4,14.2 100.4,19.7 "></polygon>
<polygon points="214.7,41.3 210.5,41.3 210.6,14.4 214.8,20.2 "></polygon>
<path d="M160.7,37.8v4c-3.2,0-6.1-1-8.5-3.1l2.3-3.2C156.4,36.9,158.5,37.6,160.7,37.8z"></path>
<path d="M72.5,37.9"></path>
<path d="M72.5,37.9"></path>
<path d="M72.1,37.6"></path>
<path d="M72.6,38.2"></path>
<path d="M72.6,38.2"></path>
<rect x="14.4" y="5.1" width="6.1" height="16.8"></rect>
<rect x="39.5" y="5" width="6.1" height="16.8"></rect>
<rect x="8.9" y="22.9" width="16.9" height="6.1"></rect>
<rect x="33.9" y="22.9" width="16.9" height="6.1"></rect>
<rect x="46.6" y="35.3" width="4.4" height="6.3"></rect>
<rect x="8.9" y="35.2" width="4.4" height="6.3"></rect>
<rect x="26.8" y="5" width="6.1" height="4.4"></rect>
<rect x="21.5" y="10.4" width="16.9" height="6.1"></rect>
<rect x="21.4" y="35.3" width="16.9" height="6.1"></rect>
<rect x="26.7" y="42.4" width="6.2" height="4.5"></rect>
<rect x="26.8" y="17.4" width="6.1" height="16.8"></rect>
<rect x="8.9" y="10.4" width="4.4" height="6.3"></rect>
<rect x="71.7" y="37.6" width="10.7" height="3.8"></rect>
<rect x="66.5" y="10.2" width="4.1" height="31.2"></rect>
<rect x="123" y="10.2" width="4.2" height="31.1"></rect>
<rect x="181.2" y="10.1" width="4.1" height="31.2"></rect>
<rect x="186.7" y="24.1" width="11.5" height="4"></rect>
<rect x="186.7" y="10.1" width="11.7" height="4"></rect>
<rect x="186.7" y="37.5" width="12.6" height="3.9"></rect>
<rect x="46.5" y="10.3" width="4.4" height="6.3"></rect>
<rect x="14.5" y="30" width="5.9" height="16.9"></rect>
<rect x="39.4" y="30" width="6" height="16.9"></rect>
<polyline points="144.8,41.4 139.4,41.4 128.5,28.2 "></polyline>
<g>
</g>
<g>
</g>
<g>
</g>
<g>
</g>
<g>
</g>
<g>
</g>
</svg>