<?xml version="1.0" encoding="utf-8"?>
<!-- Generator: Adobe Illustrator 16.2.1, SVG Export Plug-In . SVG Version: 6.00 Build 0)  -->
<!DOCTYPE svg PUBLIC "-//W3C//DTD SVG 1.1//EN" "http://www.w3.org/Graphics/SVG/1.1/DTD/svg11.dtd">
<svg version="1.1" id="Layer_1" xmlns="http://www.w3.org/2000/svg" xmlns:xlink="http://www.w3.org/1999/xlink" x="0px" y="0px"
	 width="370px" height="67px" viewBox="0 0 370 67" enable-background="new 0 0 370 67" xml:space="preserve">
<g>
	<path fill="#000000" d="M39.433,26.826c0.137,1.232,0.377,3.151,1.85,3.631c0.994,0.308,1.884,0.308,2.227,0.308
		c0.171,0,0.274,0.034,0.274,0.171c0,0.205-0.308,0.308-0.719,0.308c-0.754,0-4.454-0.103-5.721-0.204
		c-0.789-0.069-0.959-0.172-0.959-0.342c0-0.138,0.068-0.207,0.239-0.241c0.172-0.034,0.206-0.617,0.137-1.234l-1.644-17.676h-0.103
		l-8.394,17.813c-0.72,1.508-0.822,1.818-1.131,1.818c-0.241,0-0.411-0.343-1.062-1.577c-0.89-1.679-3.837-7.606-4.009-7.948
		c-0.308-0.617-4.146-8.838-4.522-9.763h-0.136L14.39,27.785c-0.034,0.548-0.034,1.165-0.034,1.748c0,0.515,0.376,0.959,0.891,1.061
		c0.582,0.138,1.096,0.172,1.301,0.172c0.137,0,0.274,0.068,0.274,0.171c0,0.24-0.205,0.308-0.616,0.308
		c-1.268,0-2.912-0.104-3.186-0.104c-0.308,0-1.953,0.104-2.879,0.104c-0.342,0-0.582-0.068-0.582-0.308
		c0-0.103,0.171-0.171,0.343-0.171c0.274,0,0.514,0,1.028-0.103c1.13-0.206,1.232-1.542,1.37-2.844l2.467-22.337
		c0.069-0.377,0.171-0.618,0.377-0.618c0.205,0,0.342,0.137,0.515,0.515l10.483,21.547L36.212,5.413
		c0.137-0.307,0.274-0.547,0.514-0.547s0.343,0.274,0.411,0.926L39.433,26.826z"/>
	<path fill="#000000" d="M55.157,6.202c0.411-1.131,0.548-1.336,0.752-1.336c0.207,0,0.343,0.172,0.755,1.234
		c0.514,1.302,5.893,15.45,7.982,20.657c1.233,3.05,2.226,3.598,2.945,3.803c0.515,0.17,1.028,0.206,1.371,0.206
		c0.205,0,0.342,0.034,0.342,0.206c0,0.206-0.308,0.273-0.686,0.273c-0.514,0-3.015,0-5.378-0.067
		c-0.651-0.036-1.028-0.036-1.028-0.24c0-0.137,0.103-0.207,0.239-0.239c0.207-0.069,0.411-0.378,0.207-0.926l-3.187-8.428
		c-0.068-0.137-0.137-0.205-0.309-0.205h-7.365c-0.17,0-0.273,0.102-0.342,0.274l-2.056,6.063c-0.308,0.856-0.48,1.679-0.48,2.295
		c0,0.686,0.721,0.994,1.303,0.994h0.343c0.239,0,0.342,0.068,0.342,0.206c0,0.206-0.204,0.273-0.514,0.273
		c-0.82,0-2.294-0.103-2.671-0.103c-0.376,0-2.262,0.103-3.871,0.103c-0.446,0-0.651-0.067-0.651-0.273
		c0-0.138,0.137-0.206,0.309-0.206c0.24,0,0.719-0.035,0.993-0.068c1.576-0.207,2.26-1.509,2.878-3.221L55.157,6.202z M58.72,19.906
		c0.17,0,0.17-0.103,0.137-0.24l-3.254-9.25c-0.171-0.514-0.342-0.514-0.514,0l-3.015,9.25c-0.069,0.17,0,0.24,0.103,0.24H58.72z"/>
	<path fill="#000000" d="M75.129,26.586c0.068,2.809,0.411,3.7,1.336,3.973c0.65,0.171,1.404,0.207,1.712,0.207
		c0.171,0,0.274,0.068,0.274,0.205c0,0.207-0.206,0.274-0.616,0.274c-1.953,0-3.323-0.104-3.631-0.104
		c-0.309,0-1.747,0.104-3.29,0.104c-0.342,0-0.547-0.034-0.547-0.274c0-0.137,0.103-0.205,0.274-0.205
		c0.273,0,0.891-0.035,1.405-0.207c0.855-0.239,1.027-1.233,1.027-4.35l0.034-19.631c0-1.336,0.103-1.714,0.377-1.714
		c0.273,0,0.856,0.754,1.199,1.097c0.513,0.582,5.618,6.098,10.894,11.751c3.391,3.629,7.125,7.81,8.222,8.941L93.422,9.25
		c-0.035-2.228-0.273-2.98-1.336-3.254c-0.616-0.137-1.404-0.171-1.679-0.171c-0.239,0-0.273-0.103-0.273-0.239
		c0-0.207,0.273-0.241,0.686-0.241c1.542,0,3.185,0.103,3.563,0.103c0.376,0,1.507-0.103,2.912-0.103
		c0.376,0,0.616,0.034,0.616,0.241c0,0.136-0.136,0.239-0.376,0.239c-0.171,0-0.412,0-0.823,0.104
		c-1.13,0.239-1.267,0.993-1.267,3.049l-0.069,20.076c0,2.261-0.068,2.431-0.308,2.431c-0.273,0-0.685-0.376-2.501-2.191
		c-0.377-0.344-5.31-5.378-8.941-9.286c-3.974-4.282-7.845-8.599-8.941-9.832L75.129,26.586z"/>
	<path fill="#000000" d="M104.351,15.28c0-5.345,0-6.303-0.069-7.4c-0.069-1.165-0.342-1.714-1.473-1.953
		c-0.274-0.069-0.857-0.104-1.165-0.104c-0.137,0-0.274-0.068-0.274-0.205c0-0.207,0.171-0.273,0.548-0.273
		c1.541,0,3.63,0.103,3.94,0.103c0.308,0,2.363-0.103,3.391-0.103c0.376,0,0.548,0.067,0.548,0.273c0,0.137-0.138,0.205-0.273,0.205
		c-0.241,0-0.445,0.035-0.856,0.104c-0.926,0.136-1.199,0.752-1.268,1.953c-0.069,1.096-0.069,2.055-0.069,7.4v4.796
		c0,4.934,1.097,7.057,2.569,8.461c1.679,1.576,3.221,1.884,5.173,1.884c2.09,0,4.146-0.993,5.38-2.465
		c1.574-1.954,1.986-4.864,1.986-8.394V15.28c0-5.345,0-6.303-0.069-7.4c-0.069-1.165-0.343-1.714-1.473-1.953
		c-0.274-0.069-0.856-0.104-1.166-0.104c-0.137,0-0.273-0.068-0.273-0.205c0-0.207,0.171-0.273,0.549-0.273
		c1.542,0,3.425,0.103,3.632,0.103c0.239,0,1.85-0.103,2.876-0.103c0.377,0,0.548,0.067,0.548,0.273
		c0,0.137-0.137,0.205-0.273,0.205c-0.24,0-0.444,0-0.856,0.104c-0.924,0.171-1.199,0.752-1.267,1.953
		c-0.069,1.096-0.069,2.055-0.069,7.4v3.666c0,3.701-0.411,7.811-3.152,10.243c-2.467,2.193-5.036,2.537-7.059,2.537
		c-1.163,0-4.623-0.137-7.056-2.432c-1.679-1.611-2.98-4.009-2.98-9.01L104.351,15.28L104.351,15.28z"/>
	<path fill="#000000" d="M133.504,15.28c0-5.345,0-6.303-0.07-7.4c-0.069-1.165-0.342-1.714-1.472-1.953
		c-0.274-0.069-0.857-0.104-1.166-0.104c-0.137,0-0.274-0.068-0.274-0.205c0-0.207,0.171-0.273,0.549-0.273
		c1.542,0,3.7,0.104,3.872,0.104c0.24,0,7.057,0,7.845-0.036c0.65-0.033,1.199-0.102,1.472-0.169
		c0.171-0.035,0.309-0.172,0.48-0.172c0.103,0,0.138,0.138,0.138,0.309c0,0.24-0.171,0.651-0.274,1.61
		c-0.035,0.342-0.104,1.85-0.172,2.261c-0.034,0.171-0.102,0.377-0.239,0.377c-0.206,0-0.274-0.171-0.274-0.445
		c0-0.24-0.033-0.823-0.206-1.234c-0.239-0.547-0.582-0.958-2.432-1.165c-0.583-0.069-4.316-0.104-4.693-0.104
		c-0.138,0-0.206,0.104-0.206,0.343v9.456c0,0.24,0.033,0.343,0.206,0.343c0.445,0,4.66,0,5.447-0.069
		c0.821-0.067,1.302-0.137,1.61-0.479c0.24-0.273,0.376-0.446,0.513-0.446c0.103,0,0.171,0.07,0.171,0.274
		c0,0.205-0.171,0.789-0.273,1.919c-0.068,0.686-0.137,1.953-0.137,2.192c0,0.273,0,0.651-0.24,0.651
		c-0.171,0-0.239-0.137-0.239-0.308c0-0.343,0-0.684-0.137-1.131c-0.138-0.479-0.446-1.062-1.782-1.199
		c-0.925-0.103-4.317-0.171-4.9-0.171c-0.171,0-0.24,0.103-0.24,0.24v3.015c0,1.166-0.035,5.139,0,5.857
		c0.103,2.365,0.617,2.81,3.975,2.81c0.891,0,2.396,0,3.288-0.376c0.891-0.378,1.302-1.063,1.542-2.468
		c0.069-0.376,0.137-0.514,0.308-0.514c0.206,0,0.206,0.274,0.206,0.514c0,0.274-0.273,2.604-0.445,3.324
		c-0.241,0.89-0.514,0.89-1.851,0.89c-5.173,0-7.468-0.206-8.462-0.206c-0.069,0-0.651,0.034-1.371,0.034
		c-0.685,0.035-1.474,0.069-1.987,0.069c-0.376,0-0.549-0.069-0.549-0.274c0-0.103,0.07-0.206,0.273-0.206
		c0.31,0,0.72-0.068,1.029-0.137c0.686-0.137,0.856-0.891,0.993-1.884c0.171-1.439,0.171-4.146,0.171-7.434L133.504,15.28
		L133.504,15.28z"/>
	<path fill="#000000" d="M157.279,21.378c0,5.037,0.137,7.229,0.753,7.845c0.549,0.548,1.439,0.788,4.111,0.788
		c1.816,0,3.323-0.034,4.146-1.027c0.446-0.548,0.789-1.405,0.892-2.056c0.034-0.273,0.103-0.446,0.309-0.446
		c0.17,0,0.206,0.137,0.206,0.516c0,0.375-0.24,2.431-0.514,3.424c-0.24,0.789-0.344,0.926-2.159,0.926
		c-4.933,0-7.194-0.207-9.18-0.207c-0.138,0-0.72,0.036-1.405,0.036c-0.685,0.033-1.439,0.068-1.953,0.068
		c-0.377,0-0.548-0.068-0.548-0.274c0-0.103,0.069-0.205,0.274-0.205c0.308,0,0.719-0.069,1.028-0.138
		c0.684-0.137,0.855-0.891,0.993-1.884c0.171-1.439,0.171-4.146,0.171-7.433V15.28c0-5.345,0-6.303-0.069-7.4
		c-0.068-1.165-0.342-1.714-1.472-1.953c-0.274-0.069-0.857-0.104-1.166-0.104c-0.138,0-0.274-0.068-0.274-0.205
		c0-0.207,0.171-0.273,0.548-0.273c1.542,0,3.701,0.103,3.873,0.103c0.171,0,2.672-0.103,3.699-0.103
		c0.377,0,0.549,0.067,0.549,0.273c0,0.137-0.137,0.205-0.274,0.205c-0.241,0-0.72,0.035-1.131,0.104
		c-0.992,0.171-1.268,0.752-1.336,1.953c-0.069,1.096-0.069,2.055-0.069,7.4V21.378z"/>
	<path fill="#000000" d="M186.879,28.024c-3.324-2.98-4.146-6.886-4.146-10.14c0-2.295,0.789-6.303,3.838-9.353
		c2.054-2.056,5.172-3.666,10.449-3.666c1.369,0,3.286,0.104,4.967,0.411c1.301,0.24,2.396,0.446,3.493,0.514
		c0.378,0.034,0.445,0.171,0.445,0.377c0,0.274-0.103,0.685-0.171,1.918c-0.069,1.13-0.069,3.015-0.104,3.528
		c-0.034,0.515-0.103,0.719-0.308,0.719c-0.241,0-0.274-0.24-0.274-0.719c0-1.336-0.549-2.741-1.439-3.494
		c-1.199-1.028-3.837-1.953-6.851-1.953c-4.557,0-6.681,1.336-7.88,2.501c-2.503,2.398-3.084,5.448-3.084,8.942
		c0,6.544,5.037,12.538,12.368,12.538c2.568,0,4.591-0.308,5.962-1.712c0.719-0.754,1.164-2.261,1.267-2.877
		c0.068-0.377,0.137-0.514,0.343-0.514c0.171,0,0.24,0.24,0.24,0.514c0,0.239-0.412,3.219-0.755,4.385
		c-0.205,0.65-0.272,0.719-0.89,0.993c-1.371,0.547-3.974,0.788-6.167,0.788C193.044,31.724,189.585,30.457,186.879,28.024"/>
	<path fill="#000000" d="M219.148,6.202c0.411-1.131,0.549-1.336,0.755-1.336c0.204,0,0.341,0.172,0.751,1.234
		c0.516,1.302,5.894,15.45,7.983,20.657c1.233,3.05,2.228,3.598,2.946,3.803c0.514,0.17,1.027,0.206,1.37,0.206
		c0.206,0,0.344,0.034,0.344,0.206c0,0.206-0.31,0.273-0.685,0.273c-0.515,0-3.017,0-5.379-0.067
		c-0.652-0.036-1.028-0.036-1.028-0.24c0-0.137,0.103-0.207,0.239-0.239c0.206-0.069,0.41-0.378,0.206-0.926l-3.187-8.429
		c-0.07-0.136-0.138-0.204-0.309-0.204h-7.365c-0.17,0-0.273,0.103-0.342,0.274l-2.056,6.064c-0.309,0.856-0.48,1.679-0.48,2.295
		c0,0.685,0.72,0.993,1.302,0.993h0.344c0.239,0,0.342,0.069,0.342,0.206c0,0.205-0.204,0.274-0.513,0.274
		c-0.822,0-2.295-0.103-2.671-0.103c-0.378,0-2.263,0.103-3.873,0.103c-0.445,0-0.649-0.069-0.649-0.274
		c0-0.137,0.136-0.206,0.308-0.206c0.238,0,0.719-0.035,0.992-0.068c1.576-0.206,2.263-1.508,2.878-3.22L219.148,6.202z
		 M222.712,19.906c0.171,0,0.171-0.103,0.137-0.24l-3.256-9.25c-0.17-0.514-0.341-0.514-0.513,0l-3.016,9.25
		c-0.069,0.17,0,0.24,0.104,0.24H222.712z"/>
	<path fill="#000000" d="M239.12,26.586c0.068,2.809,0.41,3.7,1.337,3.973c0.65,0.171,1.404,0.207,1.712,0.207
		c0.171,0,0.273,0.068,0.273,0.205c0,0.207-0.203,0.274-0.615,0.274c-1.952,0-3.323-0.104-3.631-0.104
		c-0.309,0-1.747,0.104-3.29,0.104c-0.342,0-0.548-0.034-0.548-0.274c0-0.137,0.104-0.205,0.274-0.205
		c0.273,0,0.89-0.035,1.403-0.207c0.857-0.239,1.028-1.233,1.028-4.35L237.1,6.579c0-1.336,0.104-1.714,0.378-1.714
		c0.272,0,0.856,0.754,1.198,1.097c0.514,0.582,5.618,6.098,10.895,11.751c3.39,3.629,7.124,7.81,8.221,8.941L257.414,9.25
		c-0.032-2.228-0.274-2.98-1.335-3.254c-0.617-0.137-1.404-0.171-1.679-0.171c-0.24,0-0.274-0.103-0.274-0.239
		c0-0.207,0.274-0.241,0.685-0.241c1.541,0,3.185,0.103,3.563,0.103c0.377,0,1.507-0.103,2.91-0.103
		c0.379,0,0.618,0.034,0.618,0.241c0,0.136-0.136,0.239-0.377,0.239c-0.171,0-0.41,0-0.821,0.104
		c-1.133,0.239-1.269,0.993-1.269,3.049l-0.07,20.076c0,2.261-0.066,2.431-0.307,2.431c-0.273,0-0.685-0.376-2.501-2.191
		c-0.379-0.344-5.31-5.378-8.941-9.286c-3.975-4.282-7.846-8.599-8.942-9.832L239.12,26.586z"/>
	<path fill="#000000" d="M278.894,4.865c7.709,0,13.465,4.866,13.465,12.848c0,7.673-5.414,14.01-13.669,14.01
		c-9.387,0-13.292-7.296-13.292-13.463C265.396,12.711,269.438,4.865,278.894,4.865 M279.613,30.422
		c3.082,0,9.455-1.781,9.455-11.75c0-8.223-5.002-12.642-10.412-12.642c-5.723,0-10.005,3.768-10.005,11.271
		C268.651,25.284,273.447,30.422,279.613,30.422"/>
	<path fill="#000000" d="M307.466,27.065c1.986-4.591,6.577-16.546,7.331-19.013c0.172-0.514,0.309-0.993,0.309-1.301
		c0-0.274-0.104-0.617-0.445-0.789c-0.412-0.137-0.926-0.137-1.302-0.137c-0.206,0-0.376-0.034-0.376-0.206
		c0-0.206,0.203-0.273,0.752-0.273c1.372,0,2.946,0.104,3.357,0.104c0.206,0,1.679-0.104,2.673-0.104
		c0.376,0,0.582,0.068,0.582,0.241c0,0.17-0.136,0.239-0.41,0.239c-0.24,0-0.994,0-1.646,0.411c-0.444,0.308-0.959,0.891-1.885,3.22
		c-0.377,0.958-2.089,5.07-3.836,9.284c-2.091,5.002-3.63,8.702-4.42,10.38c-0.959,2.056-1.097,2.604-1.438,2.604
		c-0.412,0-0.582-0.48-1.232-2.125L297.084,8.6c-0.753-1.918-1.265-2.295-2.466-2.638c-0.514-0.137-1.097-0.137-1.302-0.137
		s-0.273-0.103-0.273-0.239c0-0.206,0.342-0.241,0.891-0.241c1.645,0,3.598,0.103,4.008,0.103c0.344,0,1.884-0.103,3.187-0.103
		c0.615,0,0.926,0.068,0.926,0.241c0,0.17-0.104,0.239-0.344,0.239c-0.377,0-0.993,0.034-1.301,0.171
		c-0.378,0.17-0.445,0.444-0.445,0.684c0,0.445,0.41,1.508,0.925,2.843L307.466,27.065z"/>
	<path fill="#000000" d="M327.985,6.202c0.41-1.131,0.548-1.336,0.754-1.336c0.205,0,0.343,0.172,0.753,1.234
		c0.515,1.302,5.893,15.45,7.982,20.657c1.232,3.05,2.227,3.598,2.945,3.803c0.516,0.17,1.029,0.206,1.372,0.206
		c0.205,0,0.343,0.034,0.343,0.206c0,0.206-0.31,0.273-0.686,0.273c-0.514,0-3.015,0-5.379-0.067
		c-0.652-0.036-1.027-0.036-1.027-0.24c0-0.137,0.104-0.207,0.239-0.239c0.206-0.069,0.411-0.378,0.206-0.926l-3.187-8.429
		c-0.068-0.136-0.138-0.204-0.308-0.204h-7.365c-0.171,0-0.275,0.103-0.343,0.274l-2.057,6.064
		c-0.308,0.856-0.479,1.679-0.479,2.295c0,0.685,0.721,0.993,1.303,0.993h0.343c0.24,0,0.343,0.069,0.343,0.206
		c0,0.205-0.207,0.274-0.514,0.274c-0.823,0-2.295-0.103-2.672-0.103c-0.378,0-2.262,0.103-3.872,0.103
		c-0.445,0-0.651-0.069-0.651-0.274c0-0.137,0.137-0.206,0.31-0.206c0.238,0,0.72-0.035,0.993-0.068
		c1.575-0.206,2.26-1.508,2.877-3.22L327.985,6.202z M331.549,19.906c0.171,0,0.171-0.103,0.137-0.24l-3.255-9.25
		c-0.17-0.514-0.342-0.514-0.514,0l-3.015,9.25c-0.068,0.17,0,0.24,0.104,0.24H331.549z"/>
	<path fill="#000000" d="M345.834,30.799c-0.479-0.24-0.515-0.377-0.515-1.302c0-1.713,0.138-3.083,0.172-3.632
		c0.035-0.376,0.103-0.547,0.274-0.547c0.206,0,0.239,0.103,0.239,0.377c0,0.308,0,0.787,0.103,1.268
		c0.515,2.536,2.775,3.494,5.07,3.494c3.289,0,4.901-2.364,4.901-4.556c0-2.364-0.995-3.733-3.942-6.166l-1.541-1.268
		c-3.631-2.98-4.453-5.105-4.453-7.434c0-3.666,2.741-6.168,7.092-6.168c1.338,0,2.33,0.137,3.187,0.344
		c0.651,0.136,0.925,0.17,1.2,0.17c0.274,0,0.344,0.069,0.344,0.239c0,0.172-0.139,1.302-0.139,3.631
		c0,0.548-0.067,0.789-0.24,0.789c-0.203,0-0.239-0.171-0.274-0.445c-0.034-0.411-0.239-1.337-0.444-1.713
		c-0.205-0.377-1.131-1.816-4.282-1.816c-2.363,0-4.213,1.474-4.213,3.974c0,1.953,0.957,3.117,4.179,5.755l0.959,0.754
		c4.043,3.187,5.001,5.31,5.001,8.05c0,1.404-0.546,4.01-2.911,5.688c-1.474,1.029-3.322,1.44-5.173,1.44
		C348.814,31.724,347.237,31.484,345.834,30.799"/>
	<path fill="#000000" d="M179.017,39.579c-0.965,3.021-1.796,4.6-3.241,6.306c-2.32,2.759-5.648,4.687-8.233,4.687
		c-1.619,0-2.714-1.007-2.714-2.585c0-5.08,7.925-11.911,16.464-11.911c1.927,0,3.242,0.527,4.817,1.972
		c1.138-0.787,2.277-1.402,3.591-1.929l0.089,0.175c-1.797,0.788-2.497,1.183-3.46,2.016c0.612,1.009,0.92,1.884,0.92,2.978
		c0,2.848-2.672,6.089-5.037,6.089c-0.788,0-1.358-0.526-1.358-1.358c0-1.575,1.665-3.153,4.162-3.94l0.133,0.218
		c-2.63,0.877-4.031,2.19-4.031,3.723c0,0.657,0.395,1.052,1.051,1.052c2.191,0,4.601-4.074,4.601-6.612
		c0-0.789-0.177-1.271-0.702-1.973c-3.592,2.585-5.562,5.431-7.138,8.497c-2.234,4.422-3.811,6.743-5.825,8.539
		c-3.591,3.197-8.057,5.035-12.26,5.035c-1.753,0-4.292-0.394-4.292-2.671c0-0.875,0.745-1.662,1.578-1.662
		c0.567,0,0.963,0.35,0.963,0.918c0,0.481-0.396,0.833-0.963,0.833c-0.482,0-0.614-0.22-0.92-0.788V57.14
		c-0.131,0.045-0.263,0.568-0.263,0.92c0,1.183,1.357,2.189,3.943,2.189c6.831,0,11.385-5.168,15.544-11.604
		c4.03-6.262,6.352-8.059,9.415-10.467c-1.269-1.27-2.802-1.883-4.641-1.883c-8.408,0-16.071,7.007-16.071,11.562
		c0,1.444,0.919,2.409,2.32,2.409c2.979,0,9.241-3.372,11.298-10.773L179.017,39.579z"/>
	<path fill="#000000" d="M190.49,54.863l-0.834,0.699c-2.802,2.453-4.905,3.854-5.91,3.854c-0.395,0-0.57-0.264-0.57-0.744
		c0-0.395,0.132-0.832,0.526-2.058c-0.221,0.22-0.351,0.305-0.657,0.569c-1.928,1.62-3.021,2.232-3.898,2.232
		c-0.831,0-1.401-0.788-1.401-1.971c0-3.678,4.994-5.694,7.358-5.694c0.831,0,1.182,0.265,1.182,0.966
		c0,0.262-0.045,0.35-0.088,0.654l1.314-1.487l1.795-0.133l-0.524,0.701c-0.745,0.834-1.358,1.533-1.84,2.104
		c-1.271,1.4-3.327,3.632-3.327,4.247c0,0.219,0.087,0.307,0.262,0.307c1.313,0,5.036-3.196,6.613-4.599V54.863L190.49,54.863z
		 M178.357,58.366c0,0.395,0.352,0.744,0.789,0.744c1.927,0,6.832-4.598,6.832-6.306c0-0.479-0.35-0.833-0.832-0.833
		C182.169,52.191,178.357,57.14,178.357,58.366"/>
	<path fill="#000000" d="M190.27,54.687c1.27-1.049,2.54-2.1,3.854-3.063c-0.22-0.921,0.35-1.708,1.007-1.708
		c0.396,0,0.701,0.262,0.701,0.612c0,0.307-0.306,0.614-0.656,0.614c-0.22,0-0.351-0.134-0.702-0.481
		c-0.132,0.219-0.175,0.349-0.175,0.568c0,0.438,0.308,0.657,0.833,0.657c0.088,0,0.262-0.045,0.438-0.089
		c0.175,0,0.351-0.045,0.394-0.045c0.308,0,0.614,0.528,0.614,1.053c0,1.139-4.644,5.036-4.644,5.999
		c0,0.262,0.133,0.349,0.395,0.349c0.876,0,2.628-1.14,5.562-3.591c0.568-0.481,0.831-0.7,1.27-1.05v0.35
		c-0.568,0.439-5.212,4.555-6.919,4.555c-0.438,0-0.569-0.218-0.569-0.701c0-1.27,0.569-2.627,1.707-3.854l1.841-2.014
		c0.087-0.132,0.307-0.395,0.657-0.745c-0.265,0.044-0.439,0.088-0.702,0.088c-0.395,0-0.656-0.088-1.007-0.306
		c-0.834,0.656-2.54,1.926-3.899,3.15V54.687L190.27,54.687z"/>
	<path fill="#000000" d="M198.941,54.687c1.488-1.226,2.627-2.056,3.765-2.845h1.928l-4.117,4.642
		c-0.043,0.043-0.13,0.175-0.261,0.307c-1.007,1.094-1.444,1.664-1.444,1.928c0,0.263,0.131,0.394,0.393,0.394
		c1.185,0,3.812-1.795,6.788-4.599v0.351c-1.27,1.139-5.036,4.51-6.788,4.51c-0.481,0-0.701-0.262-0.701-0.831
		c0-1.445,0.964-3.022,3.372-5.562l0.702-0.699c-1.008,0.568-2.453,1.708-3.635,2.756L198.941,54.687L198.941,54.687z M206.867,47.9
		c0,0.438-0.307,0.787-0.701,0.787c-0.351,0-0.568-0.219-0.568-0.526c0-0.438,0.351-0.831,0.788-0.831
		C206.692,47.331,206.867,47.55,206.867,47.9"/>
	<path fill="#000000" d="M207.173,53.461c0.658-0.568,1.752-1.489,3.109-2.671c0.22-0.219,1.182-1.62,1.534-1.62
		c0.262,0,0.438,0.174,0.438,0.351c0,0.438-1.051,1.007-1.184,1.051c0.964,1.444,1.271,2.188,1.358,3.722
		c-0.045,0.524-0.045,0.699-0.133,1.182c0.22,0.087,0.35,0.045,0.527,0.045c0.742,0,1.488-0.351,2.276-1.008v0.35
		c-0.877,0.656-1.445,0.964-2.276,0.964c-0.178,0-0.395,0-0.701-0.045c-1.184,2.583-4.688,3.59-6.175,3.59
		c-1.14,0-1.84-0.48-1.84-1.269c0-0.613,0.525-1.139,1.271-1.139c0.48,0,0.832,0.309,0.832,0.7c0,0.395-0.307,0.657-0.744,0.657
		c-0.352,0-0.702-0.308-0.744-0.568c-0.133,0.088-0.176,0.175-0.176,0.306c0,0.569,0.612,0.963,1.401,0.963
		c2.409,0,5.344-3.414,5.344-6.173c0-0.789-0.133-1.314-0.614-2.016l-4.905,4.203v-0.35L207.173,53.461z"/>
</g>
</svg>
